<?xml version="1.0" encoding="utf-8"?>
<!-- Generator: Adobe Illustrator 25.2.1, SVG Export Plug-In . SVG Version: 6.00 Build 0)  -->
<svg version="1.1" id="Layer_1" xmlns="http://www.w3.org/2000/svg" xmlns:xlink="http://www.w3.org/1999/xlink" x="0px" y="0px"
	 viewBox="0 0 150 100" style="enable-background:new 0 0 150 100;" xml:space="preserve">
<style type="text/css">
	.st0{display:none;fill:#13254B;}
	.st1{fill:#F1F0F8;}
</style>
<g>
	<rect x="0.4" y="-23.4" class="st0" width="150.2" height="150.2"/>
	<g>
		<g>
			<polygon class="st1" points="48.6,76.9 45.5,71.6 42.9,71.6 41,81.7 43.7,81.7 44.8,76.2 48,81.7 50.5,81.7 52.4,71.6 49.7,71.6 
							"/>
			<polygon class="st1" points="53,81.7 61.2,81.7 61.6,79.3 56.2,79.3 56.6,77.6 61.4,77.6 61.8,75.4 57,75.4 57.3,74 62.6,74 
				63.1,71.6 55,71.6 			"/>
			<polygon class="st1" points="77.2,71.6 74.4,77.4 73.6,71.6 71.2,71.6 68.1,77.4 67.5,71.6 64.5,71.6 65.9,81.7 68.3,81.7 
				71.5,76 72.4,81.7 74.8,81.7 80.1,71.6 			"/>
			<path class="st1" d="M83.5,74.4c0.1-0.4,0.5-0.6,1.1-0.6c0.9,0,1.8,0.3,2.6,1l1.8-2c-0.9-0.9-2.2-1.3-3.9-1.3
				c-2.4,0-4.2,1.4-4.5,3.2l0,0c-0.4,2.1,1.1,2.7,3.2,3.2c1.3,0.3,1.6,0.5,1.5,1l0,0c-0.1,0.4-0.5,0.7-1.3,0.7c-1.2,0-2.2-0.4-3-1.2
				L79,80.2c1,1.1,2.6,1.7,4.4,1.7c2.4,0,4.3-1.2,4.7-3.3l0,0c0.4-1.9-0.9-2.6-3.1-3.1C83.7,75.1,83.4,74.9,83.5,74.4L83.5,74.4z"/>
		</g>
		<path class="st1" d="M131.1,56.4h-6.9l6.9-35.4h-3h-7.9h-3L84.8,56.4h-30c1.1-3.8,4.2-6.9,8.9-6.9h14.1c7.8,0,14.2-6.4,14.2-14.3
			S85.7,21,77.9,21H50.6l-2.1,10.7h29.4c1.9,0,3.5,1.7,3.5,3.6s-1.6,3.6-3.5,3.6H63.8c-9.8,0-18.1,7.1-20.1,17.3l-1.6,8.4
			c-1.1,1.2-6.6,7.1-8.6,6.4c-0.9-0.3-0.8-1.8-0.7-2.4l6.3-32.4H27.3c0,0-5.8,29.8-5.9,30.1c-1.2,5.7-2.2,11-0.9,13.7
			c4.2,8.7,18.3-8.7,21.6-12.8h69.1l-2.1,10.7h7.2c2.1,0,4-1.5,4.4-3.6l1.4-7.1h6.9L131.1,56.4z M99.4,56.4l17.7-19.4l-3.8,19.4
			H99.4z"/>
		<path class="st1" d="M42.1,21h-4.5c-4.3,0-7.9,3-8.7,7.2l-0.7,3.5H40L42.1,21z"/>
	</g>
</g>
</svg>
